# File produced by Open Asset Import Library (http://www.assimp.sf.net)
# (assimp v3.1.187496374)

mtllib bingham.obj.mtl

# 156 vertex positions
v  17.6097 -0.965458 21.3265
v  16.8622 -0.567974 22.1732
v  17.6097 -0.965458 22.9208
v  16.9485 -0.965458 21.3265
v  16.2009 -0.567974 22.1732
v  16.9485 -0.965458 22.9208
v  15.8761 -0.395258 23.6409
v  16.0547 -0.490248 23.1352
v  15.8761 -0.395258 20.6064
v  16.9485 -0.965458 24.7133
v  16.2701 -0.604778 23.1352
v  16.0547 -0.490248 22.8771
v  16.0547 -0.490248 21.2112
v  16.9485 -0.965458 19.534
v  16.2701 -0.604778 22.8771
v  16.0547 -0.490248 21.4693
v  16.2701 -0.604778 21.2112
v  16.2701 -0.604778 21.4693
v  15.3665 -0.62069 20.1824
v  14.7181 -0.965458 19.534
v  15.4521 -0.62069 20.1824
v  15.6974 -0.490248 22.8771
v  15.482 -0.604778 21.4693
v  15.482 -0.604778 22.8771
v  15.6974 -0.490248 21.4693
v  15.6974 -0.490248 21.2112
v  15.6974 -0.490248 23.1352
v  15.482 -0.604778 21.2112
v  15.482 -0.604778 23.1352
v  15.4521 -0.62069 24.0649
v  14.8037 -0.965458 20.8308
v  14.8037 -0.965458 23.4165
v  15.3665 -0.62069 24.0649
v  14.7181 -0.965458 24.7133
v  14.7181 -0.965458 20.8308
v  14.7181 -0.965458 23.4165
v  15.6499 -0.515499 21.4218
v  15.5295 -0.579527 21.2587
v  15.5295 -0.579527 21.4218
v  15.6499 -0.515499 21.2587
v  15.5295 -0.681259 21.2587
v  15.6499 -0.681259 21.2587
v  15.5295 -0.507459 21.2587
v  15.6499 -0.507459 21.2587
v  15.6499 -0.227759 21.2587
v  15.5295 -0.227759 21.2587
v  15.5295 -0.681259 21.4218
v  15.5295 -0.507459 21.4218
v  15.5295 -0.227759 21.4218
v  15.6499 -0.681259 21.4218
v  15.6499 -0.507459 21.4218
v  15.6499 -0.227759 21.4218
v  14.6693 -0.965458 19.4852
v  14.6693 -2.31576 20.8796
v  14.6693 -0.965458 20.8796
v  14.6693 -2.31576 19.4852
v  16.9973 -2.31576 19.4852
v  16.9973 -0.965458 19.4852
v  14.7549 -2.31576 20.8796
v  14.7549 -2.31576 23.3676
v  16.9973 -2.31576 21.2777
v  14.6693 -2.31576 24.7621
v  14.6693 -2.31576 23.3676
v  16.9973 -2.31576 24.7621
v  16.9973 -2.31576 22.9696
v  17.6585 -2.31576 21.2777
v  17.6585 -2.31576 22.9696
v  14.7549 -0.965458 20.8796
v  16.9973 -0.965458 21.2777
v  17.6585 -0.965458 22.9696
v  17.6585 -0.965458 21.2777
v  16.9973 -0.965458 22.9696
v  16.9973 -0.965458 24.7621
v  14.6693 -0.965458 24.7621
v  14.6693 -0.965458 23.3676
v  14.7549 -0.965458 23.3676
v  15.6974 -0.681259 22.8771
v  15.6974 -0.681259 23.1352
v  15.6974 -0.227759 23.1352
v  15.6974 -0.227759 22.8771
v  15.482 -0.681259 22.8771
v  15.482 -0.227759 22.8771
v  15.482 -0.681259 23.1352
v  15.482 -0.227759 23.1352
v  15.5295 -0.681259 22.9246
v  15.6499 -0.681259 22.9246
v  15.5295 -0.681259 23.0877
v  15.6499 -0.681259 23.0877
v  16.1022 -0.681259 22.9246
v  16.1022 -0.515499 23.0877
v  16.1022 -0.681259 23.0877
v  16.1022 -0.515499 22.9246
v  16.1022 -0.507459 23.0877
v  16.1022 -0.507459 22.9246
v  16.1022 -0.227759 23.0877
v  16.1022 -0.227759 22.9246
v  16.2226 -0.579527 22.9246
v  16.2226 -0.681259 22.9246
v  16.2226 -0.507459 22.9246
v  16.2226 -0.227759 22.9246
v  16.2226 -0.579527 23.0877
v  16.2226 -0.681259 23.0877
v  16.2226 -0.507459 23.0877
v  16.2226 -0.227759 23.0877
v  16.1022 -0.515499 21.4218
v  16.2226 -0.681259 21.4218
v  16.1022 -0.681259 21.4218
v  16.2226 -0.579527 21.4218
v  16.2226 -0.507459 21.4218
v  16.1022 -0.507459 21.4218
v  16.1022 -0.227759 21.4218
v  16.2226 -0.227759 21.4218
v  16.1022 -0.681259 21.2587
v  16.1022 -0.515499 21.2587
v  16.1022 -0.507459 21.2587
v  16.1022 -0.227759 21.2587
v  16.2226 -0.579527 21.2587
v  16.2226 -0.681259 21.2587
v  16.2226 -0.507459 21.2587
v  16.2226 -0.227759 21.2587
v  15.6499 -0.515499 22.9246
v  15.5295 -0.507459 22.9246
v  15.5295 -0.579527 22.9246
v  15.6499 -0.507459 22.9246
v  15.6499 -0.227759 22.9246
v  15.5295 -0.227759 22.9246
v  15.5295 -0.507459 23.0877
v  15.5295 -0.579527 23.0877
v  15.5295 -0.227759 23.0877
v  15.6499 -0.507459 23.0877
v  15.6499 -0.515499 23.0877
v  15.6499 -0.227759 23.0877
v  15.482 -0.227759 21.2112
v  15.482 -0.227759 21.4693
v  15.482 -0.681259 21.4693
v  15.482 -0.681259 21.2112
v  15.6974 -0.227759 21.2112
v  15.6974 -0.681259 21.2112
v  15.6974 -0.227759 21.4693
v  15.6974 -0.681259 21.4693
v  16.0547 -0.681259 22.8771
v  16.0547 -0.681259 23.1352
v  16.2701 -0.681259 22.8771
v  16.2701 -0.681259 23.1352
v  16.0547 -0.227759 22.8771
v  16.0547 -0.227759 23.1352
v  16.2701 -0.227759 22.8771
v  16.2701 -0.227759 23.1352
v  16.0547 -0.681259 21.4693
v  16.0547 -0.681259 21.2112
v  16.0547 -0.227759 21.2112
v  16.0547 -0.227759 21.4693
v  16.2701 -0.681259 21.4693
v  16.2701 -0.227759 21.4693
v  16.2701 -0.681259 21.2112
v  16.2701 -0.227759 21.2112

# 0 UV coordinates

# 11 vertex normals
vn 0.0119246 0.0224269 0
vn 0 0.0229923 -0.0107942
vn 0 0.0224269 0.0119246
vn 0 0.0224269 -0.0119246
vn -0.0119246 0.0224269 0
vn 0 0 0.0254
vn 0.0254 0 0
vn 0 0 -0.0254
vn -0.0254 0 0
vn 0 -0.0254 0
vn 0 0.0254 0

# Mesh 'SketchUp_ID3' with 50 faces
g SketchUp_ID3
usemtl ID4
f  1//1 2//1 3//1
f  2//2 4//2 5//2
f  4//2 2//2 1//2
f  6//3 2//3 5//3
f  2//3 6//3 3//3
f  7//1 8//1 9//1
f  8//1 7//1 10//1
f  8//1 10//1 11//1
f  12//1 9//1 8//1
f  9//1 13//1 14//1
f  13//1 9//1 12//1
f  15//1 16//1 12//1
f  13//1 12//1 16//1
f  14//1 13//1 17//1
f  14//1 17//1 4//1
f  18//1 4//1 17//1
f  18//1 5//1 4//1
f  5//1 18//1 16//1
f  16//1 15//1 5//1
f  11//1 10//1 15//1
f  15//1 10//1 6//1
f  5//1 15//1 6//1
f  19//4 14//4 20//4
f  14//4 19//4 21//4
f  14//4 21//4 9//4
f  22//5 23//5 24//5
f  23//5 22//5 25//5
f  25//5 22//5 26//5
f  27//5 7//5 22//5
f  9//5 26//5 22//5
f  9//5 22//5 7//5
f  28//5 24//5 23//5
f  28//5 29//5 24//5
f  21//5 28//5 9//5
f  28//5 21//5 29//5
f  9//5 28//5 26//5
f  21//5 30//5 29//5
f  29//5 30//5 7//5
f  29//5 7//5 27//5
f  31//5 30//5 21//5
f  30//5 31//5 32//5
f  10//3 33//3 34//3
f  33//3 10//3 30//3
f  30//3 10//3 7//3
f  19//5 20//5 35//5
f  31//3 19//3 35//3
f  19//3 31//3 21//3
f  33//4 32//4 36//4
f  32//4 33//4 30//4
f  33//5 36//5 34//5

# Mesh 'SketchUp' with 238 faces
g SketchUp
usemtl ID13
f  37//5 38//5 39//5
f  38//5 37//5 40//5
f  40//6 41//6 42//6
f  41//6 40//6 38//6
f  40//6 43//6 38//6
f  43//6 40//6 44//6
f  45//6 43//6 44//6
f  43//6 45//6 46//6
f  41//7 39//7 47//7
f  39//7 41//7 38//7
f  38//7 48//7 39//7
f  48//7 38//7 43//7
f  43//7 49//7 48//7
f  49//7 43//7 46//7
f  39//8 50//8 47//8
f  50//8 39//8 37//8
f  48//8 37//8 39//8
f  37//8 48//8 51//8
f  49//8 51//8 48//8
f  51//8 49//8 52//8
f  44//9 37//9 51//9
f  37//9 44//9 40//9
f  51//9 45//9 44//9
f  40//9 50//9 37//9
f  50//9 40//9 42//9
f  45//9 51//9 52//9
f  53//9 54//9 55//9
f  54//9 53//9 56//9
f  53//8 57//8 56//8
f  57//8 53//8 58//8
f  57//10 54//10 56//10
f  54//10 57//10 59//10
f  59//10 57//10 60//10
f  60//10 57//10 61//10
f  60//10 62//10 63//10
f  62//10 60//10 64//10
f  64//10 60//10 65//10
f  65//10 60//10 61//10
f  66//10 65//10 61//10
f  65//10 66//10 67//10
f  68//6 54//6 59//6
f  54//6 68//6 55//6
f  57//7 69//7 61//7
f  69//7 57//7 58//7
f  66//7 70//7 67//7
f  70//7 66//7 71//7
f  70//6 65//6 67//6
f  65//6 70//6 72//6
f  65//7 73//7 64//7
f  73//7 65//7 72//7
f  73//6 62//6 64//6
f  62//6 73//6 74//6
f  75//9 62//9 74//9
f  62//9 75//9 63//9
f  75//8 60//8 63//8
f  60//8 75//8 76//8
f  68//9 60//9 76//9
f  60//9 68//9 59//9
f  69//8 66//8 61//8
f  66//8 69//8 71//8
f  77//7 27//7 78//7
f  27//7 77//7 22//7
f  22//7 79//7 27//7
f  79//7 22//7 80//7
f  24//8 77//8 81//8
f  77//8 24//8 22//8
f  82//8 22//8 24//8
f  22//8 82//8 80//8
f  27//5 24//5 29//5
f  24//5 27//5 22//5
f  27//6 83//6 78//6
f  83//6 27//6 29//6
f  27//6 84//6 29//6
f  84//6 27//6 79//6
f  81//10 85//10 83//10
f  85//10 81//10 77//10
f  85//10 77//10 86//10
f  87//10 83//10 85//10
f  83//10 87//10 78//10
f  78//10 87//10 88//10
f  78//10 88//10 77//10
f  86//10 77//10 88//10
f  24//9 83//9 29//9
f  83//9 24//9 81//9
f  29//9 82//9 24//9
f  82//9 29//9 84//9
f  89//7 90//7 91//7
f  90//7 89//7 92//7
f  92//7 93//7 90//7
f  93//7 92//7 94//7
f  94//7 95//7 93//7
f  95//7 94//7 96//7
f  97//6 89//6 98//6
f  89//6 97//6 92//6
f  99//6 92//6 97//6
f  92//6 99//6 94//6
f  100//6 94//6 99//6
f  94//6 100//6 96//6
f  101//1 92//1 90//1
f  92//1 101//1 97//1
f  90//8 102//8 91//8
f  102//8 90//8 101//8
f  90//8 103//8 101//8
f  103//8 90//8 93//8
f  95//8 103//8 93//8
f  103//8 95//8 104//8
f  97//9 102//9 101//9
f  102//9 97//9 98//9
f  101//9 99//9 97//9
f  99//9 101//9 103//9
f  103//9 100//9 99//9
f  100//9 103//9 104//9
f  105//8 106//8 107//8
f  106//8 105//8 108//8
f  105//8 109//8 108//8
f  109//8 105//8 110//8
f  111//8 109//8 110//8
f  109//8 111//8 112//8
f  113//7 105//7 107//7
f  105//7 113//7 114//7
f  114//7 110//7 105//7
f  110//7 114//7 115//7
f  115//7 111//7 110//7
f  111//7 115//7 116//7
f  117//9 106//9 108//9
f  106//9 117//9 118//9
f  108//9 119//9 117//9
f  119//9 108//9 109//9
f  109//9 120//9 119//9
f  120//9 109//9 112//9
f  117//6 113//6 118//6
f  113//6 117//6 114//6
f  119//6 114//6 117//6
f  114//6 119//6 115//6
f  120//6 115//6 119//6
f  115//6 120//6 116//6
f  121//6 122//6 123//6
f  122//6 121//6 124//6
f  121//6 85//6 86//6
f  85//6 121//6 123//6
f  125//6 122//6 124//6
f  122//6 125//6 126//6
f  123//7 127//7 128//7
f  127//7 123//7 122//7
f  87//7 123//7 128//7
f  123//7 87//7 85//7
f  122//7 129//7 127//7
f  129//7 122//7 126//7
f  130//9 121//9 131//9
f  121//9 130//9 124//9
f  125//9 130//9 132//9
f  130//9 125//9 124//9
f  121//9 88//9 131//9
f  88//9 121//9 86//9
f  127//8 131//8 128//8
f  131//8 127//8 130//8
f  129//8 130//8 127//8
f  88//8 128//8 131//8
f  128//8 88//8 87//8
f  130//8 129//8 132//8
f  133//9 23//9 134//9
f  23//9 133//9 28//9
f  28//9 135//9 23//9
f  135//9 28//9 136//9
f  133//8 26//8 28//8
f  26//8 133//8 137//8
f  138//8 28//8 26//8
f  28//8 138//8 136//8
f  25//5 28//5 23//5
f  28//5 25//5 26//5
f  25//6 134//6 23//6
f  134//6 25//6 139//6
f  25//6 135//6 140//6
f  135//6 25//6 23//6
f  26//7 139//7 25//7
f  139//7 26//7 137//7
f  25//7 138//7 26//7
f  138//7 25//7 140//7
f  136//10 41//10 135//10
f  41//10 136//10 138//10
f  41//10 138//10 42//10
f  47//10 135//10 41//10
f  135//10 47//10 140//10
f  140//10 47//10 50//10
f  140//10 50//10 138//10
f  42//10 138//10 50//10
f  141//10 89//10 142//10
f  89//10 141//10 143//10
f  89//10 143//10 98//10
f  91//10 142//10 89//10
f  142//10 91//10 144//10
f  144//10 91//10 102//10
f  144//10 102//10 143//10
f  98//10 143//10 102//10
f  12//9 142//9 8//9
f  142//9 12//9 141//9
f  8//9 145//9 12//9
f  145//9 8//9 146//9
f  12//8 143//8 141//8
f  143//8 12//8 15//8
f  12//8 147//8 15//8
f  147//8 12//8 145//8
f  143//7 11//7 144//7
f  11//7 143//7 15//7
f  15//7 148//7 11//7
f  148//7 15//7 147//7
f  11//6 142//6 144//6
f  142//6 11//6 8//6
f  148//6 8//6 11//6
f  8//6 148//6 146//6
f  11//1 12//1 8//1
f  12//1 11//1 15//1
f  13//9 149//9 16//9
f  149//9 13//9 150//9
f  16//9 151//9 13//9
f  151//9 16//9 152//9
f  18//6 149//6 153//6
f  149//6 18//6 16//6
f  154//6 16//6 18//6
f  16//6 154//6 152//6
f  18//1 13//1 16//1
f  13//1 18//1 17//1
f  13//8 155//8 150//8
f  155//8 13//8 17//8
f  13//8 156//8 17//8
f  156//8 13//8 151//8
f  150//10 113//10 149//10
f  113//10 150//10 155//10
f  113//10 155//10 118//10
f  107//10 149//10 113//10
f  149//10 107//10 153//10
f  153//10 107//10 106//10
f  153//10 106//10 155//10
f  118//10 155//10 106//10
f  155//7 18//7 153//7
f  18//7 155//7 17//7
f  17//7 154//7 18//7
f  154//7 17//7 156//7

# Mesh 'SketchUp' with 56 faces
g SketchUp
usemtl ID62
f  134//11 49//11 133//11
f  49//11 134//11 139//11
f  49//11 139//11 52//11
f  46//11 133//11 49//11
f  133//11 46//11 137//11
f  137//11 46//11 45//11
f  137//11 45//11 139//11
f  52//11 139//11 45//11
f  146//11 95//11 145//11
f  95//11 146//11 148//11
f  95//11 148//11 104//11
f  96//11 145//11 95//11
f  145//11 96//11 147//11
f  147//11 96//11 100//11
f  147//11 100//11 148//11
f  104//11 148//11 100//11
f  152//11 111//11 151//11
f  111//11 152//11 154//11
f  111//11 154//11 112//11
f  116//11 151//11 111//11
f  151//11 116//11 156//11
f  156//11 116//11 120//11
f  156//11 120//11 154//11
f  112//11 154//11 120//11
f  75//11 36//11 76//11
f  36//11 75//11 34//11
f  74//11 34//11 75//11
f  76//11 36//11 32//11
f  76//11 32//11 68//11
f  31//11 68//11 32//11
f  35//11 55//11 68//11
f  35//11 68//11 31//11
f  55//11 35//11 53//11
f  20//11 53//11 35//11
f  53//11 20//11 58//11
f  58//11 20//11 14//11
f  58//11 14//11 69//11
f  4//11 69//11 14//11
f  69//11 4//11 1//11
f  69//11 1//11 71//11
f  3//11 70//11 1//11
f  71//11 1//11 70//11
f  6//11 72//11 3//11
f  3//11 72//11 70//11
f  72//11 6//11 10//11
f  10//11 73//11 72//11
f  34//11 73//11 10//11
f  34//11 74//11 73//11
f  84//11 129//11 82//11
f  129//11 84//11 79//11
f  129//11 79//11 132//11
f  126//11 82//11 129//11
f  82//11 126//11 80//11
f  80//11 126//11 125//11
f  80//11 125//11 79//11
f  132//11 79//11 125//11

# Mesh 'SketchUp' with 8 faces
g SketchUp
usemtl ID76
f  130//11 122//11 127//11
f  122//11 130//11 124//11
f  103//11 94//11 93//11
f  94//11 103//11 99//11
f  109//11 115//11 110//11
f  115//11 109//11 119//11
f  51//11 43//11 48//11
f  43//11 51//11 44//11

