# File produced by Open Asset Import Library (http://www.assimp.sf.net)
# (assimp v3.1.187496374)

mtllib dey.obj.mtl

# 108 vertex positions
v  4.36608 1.56089 51.5206
v  3.64724 1.86043 50.6356
v  3.64724 1.86043 52.2394
v  4.36608 1.56089 49.9168
v  3.92314 1.9754 52.5153
v  7.49083 1.9754 52.5153
v  6.80461 1.56089 51.5206
v  2.92841 1.56089 49.9168
v  3.64724 1.86043 52.7912
v  3.64724 1.86043 54.395
v  2.92841 1.56089 55.1139
v  4.36608 1.56089 53.5101
v  6.80461 1.56089 53.5101
v  7.73273 2.12152 54.1857
v  6.80461 1.56089 55.1139
v  7.73273 2.12152 50.8449
v  6.80461 1.56089 49.9168
v  4.36608 1.56089 55.1139
v  7.99895 1.96071 54.452
v  8.71695 1.56089 55.1139
v  8.05505 1.96071 54.452
v  7.99895 1.96071 50.5787
v  8.66085 1.56089 51.2406
v  8.66085 1.56089 53.7901
v  8.71695 1.56089 49.9168
v  8.05505 1.96071 50.5787
v  8.71695 1.56089 53.7901
v  8.71695 1.56089 51.2406
v  2.88164 1.56089 49.87
v  2.88164 0.637787 55.1606
v  2.88164 1.56089 55.1606
v  2.88164 0.637787 49.87
v  4.41284 0.637787 49.87
v  4.41284 1.56089 49.87
v  4.41284 1.56089 55.1606
v  4.41284 0.637787 55.1606
v  4.41284 1.56089 51.4738
v  4.41284 0.637787 51.4738
v  4.41284 0.637787 53.5568
v  4.41284 1.56089 53.5568
v  6.75784 0.637787 51.4738
v  6.75784 1.56089 51.4738
v  6.75784 1.56089 53.5568
v  6.75784 0.637787 53.5568
v  6.75784 1.56089 49.87
v  6.75784 0.637787 49.87
v  6.75784 0.637787 55.1606
v  6.75784 1.56089 55.1606
v  8.76372 0.637787 49.87
v  8.76372 1.56089 49.87
v  8.76372 1.56089 55.1606
v  8.76372 0.637787 55.1606
v  8.76372 1.56089 51.2874
v  8.76372 0.637787 51.2874
v  8.76372 0.637787 53.7433
v  8.76372 1.56089 53.7433
v  8.70762 0.637787 51.2874
v  8.70762 1.56089 51.2874
v  8.70762 1.56089 53.7433
v  8.70762 0.637787 53.7433
v  7.88358 1.81809 51.1221
v  7.58188 1.81809 51.3388
v  7.58188 1.81809 51.1221
v  7.88358 1.81809 51.3388
v  7.88358 2.32229 51.3388
v  7.88358 2.32229 51.1221
v  7.58188 2.32229 51.3388
v  7.58188 2.32229 51.1221
v  7.88358 2.35329 51.1221
v  7.88358 2.35329 51.3388
v  7.88358 2.36469 51.1221
v  7.88358 2.36469 51.3388
v  7.58188 2.35329 51.3388
v  7.58188 2.36469 51.3388
v  7.58188 2.35329 51.1221
v  7.58188 2.36469 51.1221
v  7.56816 2.32229 51.1083
v  7.56816 2.32229 51.3525
v  7.89729 2.32229 51.1083
v  7.89729 2.32229 51.3525
v  7.56816 2.36469 51.1083
v  7.89729 2.36469 51.1083
v  7.89729 2.36469 51.3525
v  7.56816 2.36469 51.3525
v  7.88358 1.81809 53.6919
v  7.58188 1.81809 53.9086
v  7.58188 1.81809 53.6919
v  7.88358 1.81809 53.9086
v  7.88358 2.32229 53.9086
v  7.88358 2.32229 53.6919
v  7.58188 2.32229 53.9086
v  7.58188 2.32229 53.6919
v  7.88358 2.35329 53.6919
v  7.88358 2.35329 53.9086
v  7.88358 2.36469 53.6919
v  7.88358 2.36469 53.9086
v  7.58188 2.35329 53.9086
v  7.58188 2.36469 53.9086
v  7.58188 2.35329 53.6919
v  7.58188 2.36469 53.6919
v  7.56816 2.32229 53.6782
v  7.56816 2.32229 53.9223
v  7.89729 2.32229 53.6782
v  7.89729 2.32229 53.9223
v  7.56816 2.36469 53.6782
v  7.89729 2.36469 53.6782
v  7.89729 2.36469 53.9223
v  7.56816 2.36469 53.9223

# 0 UV coordinates

# 14 vertex normals
vn 0.00976999 0.0234458 0
vn 0 0.0234458 -0.00976999
vn -0.00976999 0.0234458 0
vn 0 0.0234458 0.00976999
vn -0.0131328 0.0217414 0
vn 0 0.0217414 0.0131328
vn 0.0131328 0.0217414 0
vn 0 0.0217414 -0.0131328
vn -0.0254 -0 0
vn 0 0 -0.0254
vn 0 0 0.0254
vn 0.0254 0 0
vn 0 0.0254 0
vn 0 -0.0254 0

# Mesh 'SketchUp_ID36' with 38 faces
g SketchUp_ID36
usemtl ID37
f  1//1 2//1 3//1
f  2//1 1//1 4//1
f  5//2 1//2 3//2
f  1//2 5//2 6//2
f  1//2 6//2 7//2
f  4//2 8//2 2//2
f  5//3 3//3 9//3
f  2//3 9//3 3//3
f  2//3 10//3 9//3
f  8//3 10//3 2//3
f  10//3 8//3 11//3
f  12//4 5//4 9//4
f  5//4 12//4 6//4
f  6//4 12//4 13//4
f  14//5 13//5 15//5
f  13//5 14//5 6//5
f  16//5 6//5 14//5
f  16//5 7//5 6//5
f  7//5 16//5 17//5
f  18//1 9//1 10//1
f  9//1 18//1 12//1
f  18//4 10//4 11//4
f  15//6 19//6 14//6
f  19//6 15//6 20//6
f  19//6 20//6 21//6
f  19//7 16//7 14//7
f  16//7 19//7 22//7
f  22//7 19//7 23//7
f  23//7 19//7 24//7
f  17//8 22//8 25//8
f  22//8 17//8 16//8
f  25//8 22//8 26//8
f  27//7 21//7 20//7
f  21//8 24//8 19//8
f  24//8 21//8 27//8
f  23//6 26//6 22//6
f  26//6 23//6 28//6
f  25//7 26//7 28//7

# Mesh 'SketchUp_ID44' with 32 faces
g SketchUp_ID44
usemtl ID7
f  29//9 30//9 31//9
f  30//9 29//9 32//9
f  29//10 33//10 32//10
f  33//10 29//10 34//10
f  35//11 30//11 36//11
f  30//11 35//11 31//11
f  33//12 37//12 38//12
f  37//12 33//12 34//12
f  39//12 35//12 36//12
f  35//12 39//12 40//12
f  37//10 41//10 38//10
f  41//10 37//10 42//10
f  43//11 39//11 44//11
f  39//11 43//11 40//11
f  45//9 41//9 42//9
f  41//9 45//9 46//9
f  43//9 47//9 48//9
f  47//9 43//9 44//9
f  45//10 49//10 46//10
f  49//10 45//10 50//10
f  51//11 47//11 52//11
f  47//11 51//11 48//11
f  49//12 53//12 54//12
f  53//12 49//12 50//12
f  55//12 51//12 52//12
f  51//12 55//12 56//12
f  53//11 57//11 54//11
f  57//11 53//11 58//11
f  59//10 55//10 60//10
f  55//10 59//10 56//10
f  57//12 59//12 60//12
f  59//12 57//12 58//12

# Mesh 'SketchUp_ID50' with 32 faces
g SketchUp_ID50
usemtl ID51
f  31//13 11//13 29//13
f  11//13 31//13 35//13
f  11//13 35//13 18//13
f  8//13 29//13 11//13
f  29//13 8//13 34//13
f  34//13 8//13 4//13
f  34//13 4//13 37//13
f  1//13 37//13 4//13
f  37//13 1//13 7//13
f  37//13 7//13 42//13
f  42//13 7//13 17//13
f  17//13 45//13 42//13
f  45//13 17//13 50//13
f  50//13 17//13 25//13
f  50//13 25//13 53//13
f  28//13 53//13 25//13
f  28//13 58//13 53//13
f  23//13 58//13 28//13
f  58//13 23//13 59//13
f  24//13 59//13 23//13
f  59//13 24//13 27//13
f  59//13 27//13 56//13
f  20//13 51//13 27//13
f  56//13 27//13 51//13
f  15//13 51//13 20//13
f  15//13 48//13 51//13
f  13//13 43//13 15//13
f  48//13 15//13 43//13
f  12//13 40//13 13//13
f  13//13 40//13 43//13
f  40//13 12//13 18//13
f  18//13 35//13 40//13

# Mesh 'Dey_Chimney_ID5' with 26 faces
g Dey_Chimney_ID5
usemtl ID7
f  61//14 62//14 63//14
f  62//14 61//14 64//14
f  61//12 65//12 64//12
f  65//12 61//12 66//12
f  65//11 62//11 64//11
f  62//11 65//11 67//11
f  68//9 62//9 67//9
f  62//9 68//9 63//9
f  68//10 61//10 63//10
f  61//10 68//10 66//10
f  69//9 65//9 70//9
f  65//9 69//9 66//9
f  70//9 71//9 69//9
f  71//9 70//9 72//9
f  73//10 65//10 67//10
f  65//10 73//10 70//10
f  74//10 70//10 73//10
f  70//10 74//10 72//10
f  68//12 73//12 67//12
f  73//12 68//12 75//12
f  75//12 74//12 73//12
f  74//12 75//12 76//12
f  69//11 68//11 66//11
f  68//11 69//11 75//11
f  71//11 75//11 69//11
f  75//11 71//11 76//11

# Mesh 'Dey_Chimney_ID13' with 14 faces
g Dey_Chimney_ID13
usemtl ID7
f  77//14 68//14 78//14
f  68//14 77//14 79//14
f  68//14 79//14 66//14
f  67//14 78//14 68//14
f  78//14 67//14 80//14
f  80//14 67//14 65//14
f  80//14 65//14 79//14
f  66//14 79//14 65//14
f  81//10 79//10 77//10
f  79//10 81//10 82//10
f  79//12 83//12 80//12
f  83//12 79//12 82//12
f  81//9 78//9 84//9
f  78//9 81//9 77//9

# Mesh 'Dey_Chimney_ID19' with 10 faces
g Dey_Chimney_ID19
usemtl ID20
f  84//13 74//13 81//13
f  74//13 84//13 83//13
f  74//13 83//13 72//13
f  72//13 83//13 71//13
f  81//13 76//13 82//13
f  76//13 81//13 74//13
f  82//13 76//13 71//13
f  82//13 71//13 83//13
f  83//11 78//11 80//11
f  78//11 83//11 84//11

# Mesh 'Dey_Chimney_ID27' with 2 faces
g Dey_Chimney_ID27
usemtl ID28
f  70//13 75//13 73//13
f  75//13 70//13 69//13

# Mesh 'Dey_Chimney_ID5' with 26 faces
g Dey_Chimney_ID5
usemtl ID7
f  85//14 86//14 87//14
f  86//14 85//14 88//14
f  85//12 89//12 88//12
f  89//12 85//12 90//12
f  89//11 86//11 88//11
f  86//11 89//11 91//11
f  92//9 86//9 91//9
f  86//9 92//9 87//9
f  92//10 85//10 87//10
f  85//10 92//10 90//10
f  93//9 89//9 94//9
f  89//9 93//9 90//9
f  94//9 95//9 93//9
f  95//9 94//9 96//9
f  97//10 89//10 91//10
f  89//10 97//10 94//10
f  98//10 94//10 97//10
f  94//10 98//10 96//10
f  92//12 97//12 91//12
f  97//12 92//12 99//12
f  99//12 98//12 97//12
f  98//12 99//12 100//12
f  93//11 92//11 90//11
f  92//11 93//11 99//11
f  95//11 99//11 93//11
f  99//11 95//11 100//11

# Mesh 'Dey_Chimney_ID13' with 14 faces
g Dey_Chimney_ID13
usemtl ID7
f  101//14 92//14 102//14
f  92//14 101//14 103//14
f  92//14 103//14 90//14
f  91//14 102//14 92//14
f  102//14 91//14 104//14
f  104//14 91//14 89//14
f  104//14 89//14 103//14
f  90//14 103//14 89//14
f  105//10 103//10 101//10
f  103//10 105//10 106//10
f  103//12 107//12 104//12
f  107//12 103//12 106//12
f  105//9 102//9 108//9
f  102//9 105//9 101//9

# Mesh 'Dey_Chimney_ID19' with 10 faces
g Dey_Chimney_ID19
usemtl ID20
f  108//13 98//13 105//13
f  98//13 108//13 107//13
f  98//13 107//13 96//13
f  96//13 107//13 95//13
f  105//13 100//13 106//13
f  100//13 105//13 98//13
f  106//13 100//13 95//13
f  106//13 95//13 107//13
f  107//11 102//11 104//11
f  102//11 107//11 108//11

# Mesh 'Dey_Chimney_ID27' with 2 faces
g Dey_Chimney_ID27
usemtl ID28
f  94//13 99//13 97//13
f  99//13 94//13 93//13

