# File produced by Open Asset Import Library (http://www.assimp.sf.net)
# (assimp v3.1.187496374)

mtllib greenlaw.obj.mtl

# 177 vertex positions
v  52.996 -0.618458 25.6244
v  53.4849 -0.639458 25.6244
v  52.996 -0.639458 25.6244
v  53.4849 -0.618458 25.6244
v  52.996 -0.639458 25.2449
v  52.996 -0.618458 25.2449
v  53.4849 -0.618458 25.2449
v  53.4849 -0.639458 25.2449
v  52.9209 -0.618458 25.1698
v  52.9209 -0.965458 25.6995
v  52.9209 -0.618458 25.6995
v  52.9209 -0.965458 25.1698
v  53.56 -0.618458 25.6995
v  53.56 -0.965458 25.6995
v  53.56 -0.965458 25.1698
v  53.56 -0.618458 25.1698
v  53.56 -0.944032 25.4913
v  53.56 -0.965458 25.4548
v  53.56 -0.878413 25.4917
v  53.56 -0.845463 25.4347
v  53.56 -0.878413 25.3776
v  53.56 -0.965458 25.4142
v  53.56 -0.944313 25.3776
v  54.6221 -0.932658 25.7724
v  50.9678 -0.965458 25.7724
v  54.6221 -0.965458 25.7724
v  50.9678 -0.932658 25.7724
v  54.6221 -0.965458 25.7277
v  54.6221 -0.932658 25.7277
v  50.9678 -0.932658 25.7277
v  50.9678 -0.965458 25.7277
v  52.5418 -0.745258 24.1691
v  52.3779 -0.803458 24.1691
v  52.5418 -0.803458 24.1691
v  52.3779 -0.745258 24.1691
v  52.5418 -0.803458 24.1318
v  52.5418 -0.745258 24.1318
v  52.5418 -0.726058 24.2415
v  52.5418 -0.803458 24.2415
v  52.5418 -0.726058 24.1318
v  52.3779 -0.745258 23.9832
v  52.518 -0.745258 24.1318
v  52.518 -0.745258 23.9832
v  52.3779 -0.803458 23.9832
v  52.518 -0.803458 24.1318
v  52.5973 -0.726058 24.1318
v  52.5973 -0.803458 24.1318
v  52.8246 -0.726058 24.1318
v  53.0763 -0.705658 24.1318
v  52.518 -0.705658 24.1318
v  52.8246 -0.803458 24.1318
v  53.0763 -0.803458 24.1318
v  52.8246 -0.726058 24.2415
v  52.8246 -0.803458 24.2415
v  52.518 -0.705658 23.87
v  52.518 -0.803458 23.9832
v  52.518 -0.803458 23.87
v  53.0763 -0.705658 23.87
v  53.0763 -0.803458 23.87
v  53.122 -0.758358 23.7237
v  52.814 -0.803458 23.7237
v  53.122 -0.803458 23.7237
v  52.814 -0.758358 23.7237
v  53.122 -0.803458 23.6042
v  53.122 -0.758358 23.6042
v  52.814 -0.758358 23.6042
v  52.814 -0.803458 23.6042
v  50.7479 -0.900158 22.4266
v  50.7479 -3.35016 27.1113
v  50.7479 -0.900158 27.1113
v  50.7479 -3.35016 22.4266
v  54.849 -3.35016 22.4266
v  54.849 -0.900158 22.4266
v  54.849 -3.35016 27.1113
v  54.849 -0.900158 27.1113
v  54.0633 -0.965458 25.4142
v  53.56 -0.977263 25.4347
v  54.0718 -0.977263 25.4347
v  54.0482 -0.944313 25.3776
v  54.2801 -0.965458 25.1975
v  54.3006 -0.977263 25.2059
v  54.2435 -0.944313 25.1823
v  54.0801 -0.965458 25.4548
v  54.0952 -0.944032 25.4913
v  54.0482 -0.878413 25.3776
v  54.3006 -0.977263 24.0013
v  54.2801 -0.965458 24.0098
v  54.2435 -0.944313 24.025
v  54.3207 -0.965458 25.2142
v  54.3571 -0.944032 25.2294
v  54.2435 -0.878413 25.1823
v  54.0718 -0.845463 25.4347
v  54.1405 -0.977263 23.8413
v  54.1321 -0.965458 23.8618
v  54.1169 -0.944313 23.8984
v  54.3207 -0.965458 23.993
v  54.3571 -0.944032 23.9779
v  54.0954 -0.878413 25.4917
v  54.2435 -0.878413 24.025
v  54.3006 -0.845463 25.2059
v  52.5743 -0.965458 23.8618
v  52.5743 -0.977263 23.8413
v  52.5743 -0.944313 23.8984
v  54.1489 -0.965458 23.8212
v  54.164 -0.944032 23.7847
v  54.3576 -0.878413 25.2296
v  54.1169 -0.878413 23.8984
v  54.3006 -0.845463 24.0013
v  52.5743 -0.965458 23.8212
v  52.5743 -0.845463 23.8413
v  52.5743 -0.878413 23.7842
v  52.5743 -0.944032 23.7847
v  52.5743 -0.878413 23.8984
v  54.3576 -0.878413 23.9777
v  54.1405 -0.845463 23.8413
v  54.1642 -0.878413 23.7842
v  52.8246 -0.803458 24.0839
v  53.2457 -0.803458 24.2824
v  52.5973 -0.803458 23.9832
v  52.5973 -0.803458 24.0839
v  52.5418 -0.803458 24.0839
v  52.5973 -0.803458 24.1691
v  52.3233 -0.803458 23.2868
v  52.3233 -0.803458 24.2415
v  52.3233 -0.803458 23.3277
v  53.2457 -0.803458 23.2868
v  53.2457 -0.803458 24.2415
v  53.2457 -0.803458 23.3277
v  52.3233 -0.803458 24.2824
v  53.6209 -0.965458 24.2824
v  53.6477 -0.965458 24.2824
v  53.2457 -0.814239 24.2824
v  52.3233 -0.814239 24.2824
v  53.6439 -0.974733 24.2824
v  51.9213 -0.965458 24.2824
v  51.948 -0.965458 24.2824
v  52.3233 -0.826358 24.2824
v  53.2457 -0.826358 24.2824
v  51.925 -0.974733 24.2824
v  53.6477 -0.965458 24.2415
v  53.2457 -0.826358 23.2868
v  53.2457 -0.814239 24.2415
v  53.2457 -0.814239 23.3277
v  53.2457 -0.814239 23.2868
v  53.6477 -0.965458 23.3277
v  53.6477 -0.965458 23.2868
v  51.948 -0.965458 23.2868
v  51.9213 -0.965458 23.2868
v  52.3233 -0.814239 23.2868
v  51.925 -0.974733 23.2868
v  53.6209 -0.965458 23.2868
v  52.3233 -0.826358 23.2868
v  53.6439 -0.974733 23.2868
v  51.9213 -0.965458 23.3277
v  52.3233 -0.814239 24.2415
v  52.3233 -0.814239 23.3277
v  51.9213 -0.965458 24.2415
v  53.6209 -0.965458 24.2415
v  53.6439 -0.974733 24.2415
v  51.948 -0.965458 24.2415
v  51.925 -0.974733 24.2415
v  53.2419 -0.812733 24.2415
v  53.6209 -0.965458 23.3277
v  53.6439 -0.974733 23.3277
v  53.2419 -0.812733 23.3277
v  51.948 -0.965458 23.3277
v  51.925 -0.974733 23.3277
v  52.327 -0.812733 23.3277
v  52.327 -0.812733 24.2415
v  54.8231 -0.900158 27.0854
v  54.6993 -0.965458 22.5763
v  54.6993 -0.965458 26.9617
v  54.8231 -0.900158 22.4525
v  50.8975 -0.965458 22.5763
v  50.7738 -0.900158 22.4525
v  50.8975 -0.965458 26.9617
v  50.7738 -0.900158 27.0854

# 0 UV coordinates

# 56 vertex normals
vn 0 0 -0.0254
vn 0.0254 0 0
vn -0.0254 -0 0
vn 0 0 0.0254
vn 0 0.0254 0
vn 0 -0.0254 0
vn 0 -0.021997 -0.0127
vn 0 0.021997 0.0127
vn -0.00898026 -0.021997 -0.00898026
vn 0.00898026 0.021997 0.00898026
vn -0 -0.0219021 0.0128631
vn 0 0.0219021 -0.0128631
vn -0.0127 -0.021997 -0
vn 0.0127 0.021997 0
vn 0.00909556 -0.0219021 0.00909556
vn -0.00909556 0.0219021 -0.00909556
vn -0.0179605 0 -0.0179605
vn 0.0179605 0 0.0179605
vn 0 0.021997 -0.0127
vn -0 -0.021997 0.0127
vn -0.00898026 -0.021997 0.00898026
vn 0.00898026 0.021997 -0.00898026
vn 0.0128631 -0.0219021 0
vn -0.0128631 0.0219021 0
vn -0 -0.000188699 0.0253993
vn 0 0.000188699 -0.0253993
vn -0.00898026 0.021997 -0.00898026
vn 0.00898026 -0.021997 0.00898026
vn 0.00909556 -0.0219021 -0.00909556
vn -0.00909556 0.0219021 0.00909556
vn 0.01796 -0.000188699 0.01796
vn -0.01796 0.000188699 -0.01796
vn -0.0179605 0 0.0179605
vn 0.0179605 0 -0.0179605
vn -0.0127 0.021997 0
vn 0.0127 -0.021997 0
vn 0 -0.0219021 -0.0128631
vn 0 0.0219021 0.0128631
vn 0.0253993 -0.000188699 0
vn -0.0253993 0.000188699 0
vn -0.00898026 0.021997 0.00898026
vn 0.00898026 -0.021997 -0.00898026
vn 0.01796 -0.000188699 -0.01796
vn -0.01796 0.000188699 0.01796
vn 0 -0.000188699 -0.0253993
vn 0 0.000188699 0.0253993
vn 0.00949392 0.023559 0
vn -0.00949392 0.023559 0
vn -0.00949392 -0.023559 -0
vn 0.00949392 -0.023559 0
vn 0.023559 -0.00949392 0
vn -0.023559 -0.00949392 -0
vn -0.0118565 0.0224629 0
vn 0 0.0224629 0.0118565
vn 0 0.0224629 -0.0118565
vn 0.0118565 0.0224629 0

# Mesh 'SketchUp' with 107 faces
g SketchUp
usemtl ID5
f  1//1 2//1 3//1
f  2//1 1//1 4//1
f  5//2 1//2 3//2
f  1//2 5//2 6//2
f  7//3 2//3 4//3
f  2//3 7//3 8//3
f  7//4 5//4 8//4
f  5//4 7//4 6//4
f  9//3 10//3 11//3
f  10//3 9//3 12//3
f  13//4 10//4 14//4
f  10//4 13//4 11//4
f  9//1 15//1 12//1
f  15//1 9//1 16//1
f  14//2 17//2 13//2
f  17//2 14//2 18//2
f  13//2 17//2 19//2
f  17//2 20//2 19//2
f  20//2 17//2 18//2
f  19//2 16//2 13//2
f  16//2 19//2 20//2
f  16//2 20//2 21//2
f  20//2 18//2 22//2
f  20//2 22//2 21//2
f  16//2 21//2 15//2
f  23//2 15//2 21//2
f  21//2 22//2 23//2
f  15//2 23//2 22//2
f  24//4 25//4 26//4
f  25//4 24//4 27//4
f  28//2 24//2 26//2
f  24//2 28//2 29//2
f  24//5 30//5 27//5
f  30//5 24//5 29//5
f  30//3 25//3 27//3
f  25//3 30//3 31//3
f  30//1 28//1 31//1
f  28//1 30//1 29//1
f  32//4 33//4 34//4
f  33//4 32//4 35//4
f  36//2 32//2 34//2
f  32//2 36//2 37//2
f  38//3 32//3 39//3
f  32//3 38//3 40//3
f  32//3 40//3 37//3
f  34//3 39//3 32//3
f  32//5 41//5 35//5
f  41//5 32//5 42//5
f  42//5 32//5 37//5
f  43//5 41//5 42//5
f  41//3 33//3 35//3
f  33//3 41//3 44//3
f  37//4 45//4 36//4
f  45//4 37//4 42//4
f  36//4 46//4 37//4
f  37//4 46//4 40//4
f  40//4 42//4 37//4
f  46//4 36//4 47//4
f  48//4 49//4 46//4
f  46//4 49//4 40//4
f  47//4 48//4 46//4
f  40//4 49//4 50//4
f  42//4 40//4 50//4
f  49//4 51//4 52//4
f  51//4 49//4 48//4
f  48//4 47//4 51//4
f  53//4 39//4 54//4
f  39//4 53//4 38//4
f  53//5 40//5 38//5
f  40//5 53//5 46//5
f  46//5 53//5 48//5
f  55//3 42//3 50//3
f  42//3 55//3 43//3
f  43//3 55//3 56//3
f  56//3 55//3 57//3
f  43//3 45//3 42//3
f  45//3 43//3 56//3
f  41//1 56//1 44//1
f  56//1 41//1 43//1
f  51//2 53//2 54//2
f  53//2 51//2 48//2
f  49//5 55//5 50//5
f  55//5 49//5 58//5
f  59//2 49//2 52//2
f  49//2 59//2 58//2
f  55//1 59//1 57//1
f  59//1 55//1 58//1
f  60//4 61//4 62//4
f  61//4 60//4 63//4
f  64//2 60//2 62//2
f  60//2 64//2 65//2
f  60//5 66//5 63//5
f  66//5 60//5 65//5
f  66//3 61//3 63//3
f  61//3 66//3 67//3
f  66//1 64//1 67//1
f  64//1 66//1 65//1
f  68//3 69//3 70//3
f  69//3 68//3 71//3
f  68//1 72//1 71//1
f  72//1 68//1 73//1
f  72//6 69//6 71//6
f  69//6 72//6 74//6
f  75//4 69//4 74//4
f  69//4 75//4 70//4
f  72//2 75//2 74//2
f  75//2 72//2 73//2

# Mesh 'SketchUp_ID11' with 172 faces
g SketchUp_ID11
usemtl ID12
f  76//7 77//7 22//7
f  77//7 76//7 78//7
f  22//7 79//7 76//7
f  79//7 22//7 23//7
f  78//8 76//8 77//8
f  22//8 77//8 76//8
f  76//8 79//8 22//8
f  23//8 22//8 79//8
f  80//9 78//9 76//9
f  78//9 80//9 81//9
f  76//9 82//9 80//9
f  82//9 76//9 79//9
f  81//10 80//10 78//10
f  76//10 78//10 80//10
f  80//10 82//10 76//10
f  79//10 76//10 82//10
f  78//11 18//11 77//11
f  18//11 78//11 83//11
f  83//11 17//11 18//11
f  17//11 83//11 84//11
f  83//12 78//12 18//12
f  84//12 83//12 17//12
f  18//12 17//12 83//12
f  77//12 18//12 78//12
f  21//1 79//1 23//1
f  79//1 21//1 85//1
f  85//4 21//4 79//4
f  23//4 79//4 21//4
f  86//13 80//13 87//13
f  80//13 86//13 81//13
f  82//13 87//13 80//13
f  87//13 82//13 88//13
f  81//14 86//14 80//14
f  87//14 80//14 86//14
f  80//14 87//14 82//14
f  88//14 82//14 87//14
f  81//15 83//15 78//15
f  83//15 81//15 89//15
f  89//15 84//15 83//15
f  84//15 89//15 90//15
f  89//16 81//16 83//16
f  90//16 89//16 84//16
f  83//16 84//16 89//16
f  78//16 83//16 81//16
f  91//17 79//17 85//17
f  79//17 91//17 82//17
f  82//18 91//18 79//18
f  85//18 79//18 91//18
f  92//19 21//19 20//19
f  21//19 92//19 85//19
f  85//20 92//20 21//20
f  20//20 21//20 92//20
f  93//21 87//21 94//21
f  87//21 93//21 86//21
f  88//21 94//21 87//21
f  94//21 88//21 95//21
f  86//22 93//22 87//22
f  94//22 87//22 93//22
f  87//22 94//22 88//22
f  95//22 88//22 94//22
f  96//23 81//23 86//23
f  81//23 96//23 89//23
f  97//23 89//23 96//23
f  89//23 97//23 90//23
f  89//24 96//24 81//24
f  90//24 97//24 89//24
f  96//24 89//24 97//24
f  86//24 81//24 96//24
f  98//25 17//25 84//25
f  17//25 98//25 19//25
f  19//26 98//26 17//26
f  84//26 17//26 98//26
f  99//3 82//3 91//3
f  82//3 99//3 88//3
f  88//2 99//2 82//2
f  91//2 82//2 99//2
f  92//27 91//27 85//27
f  91//27 92//27 100//27
f  100//28 92//28 91//28
f  85//28 91//28 92//28
f  98//8 20//8 19//8
f  20//8 98//8 92//8
f  92//7 98//7 20//7
f  19//7 20//7 98//7
f  93//20 101//20 102//20
f  101//20 93//20 94//20
f  94//20 103//20 101//20
f  103//20 94//20 95//20
f  94//19 93//19 101//19
f  95//19 94//19 103//19
f  101//19 103//19 94//19
f  102//19 101//19 93//19
f  104//29 86//29 93//29
f  86//29 104//29 96//29
f  105//29 96//29 104//29
f  96//29 105//29 97//29
f  96//30 104//30 86//30
f  97//30 105//30 96//30
f  104//30 96//30 105//30
f  93//30 86//30 104//30
f  84//31 106//31 98//31
f  106//31 84//31 90//31
f  90//32 84//32 106//32
f  98//32 106//32 84//32
f  99//33 95//33 88//33
f  95//33 99//33 107//33
f  107//34 99//34 95//34
f  88//34 95//34 99//34
f  100//35 99//35 91//35
f  99//35 100//35 108//35
f  108//36 100//36 99//36
f  91//36 99//36 100//36
f  98//10 100//10 92//10
f  100//10 98//10 106//10
f  106//9 98//9 100//9
f  92//9 100//9 98//9
f  109//3 102//3 101//3
f  101//3 110//3 109//3
f  109//3 110//3 111//3
f  109//3 111//3 112//3
f  103//3 110//3 101//3
f  110//3 103//3 113//3
f  101//2 102//2 109//2
f  109//2 110//2 101//2
f  101//2 110//2 103//2
f  112//2 111//2 109//2
f  111//2 110//2 109//2
f  113//2 103//2 110//2
f  104//37 102//37 109//37
f  102//37 104//37 93//37
f  109//37 105//37 104//37
f  105//37 109//37 112//37
f  93//38 104//38 102//38
f  109//38 102//38 104//38
f  104//38 105//38 109//38
f  112//38 109//38 105//38
f  90//39 114//39 106//39
f  114//39 90//39 97//39
f  97//40 90//40 114//40
f  106//40 114//40 90//40
f  107//4 103//4 95//4
f  103//4 107//4 113//4
f  113//1 107//1 103//1
f  95//1 103//1 107//1
f  99//41 115//41 107//41
f  115//41 99//41 108//41
f  108//42 99//42 115//42
f  107//42 115//42 99//42
f  106//14 108//14 100//14
f  108//14 106//14 114//14
f  114//13 106//13 108//13
f  100//13 108//13 106//13
f  116//43 97//43 105//43
f  97//43 116//43 114//43
f  114//44 116//44 97//44
f  105//44 97//44 116//44
f  107//8 110//8 113//8
f  110//8 107//8 115//8
f  115//7 107//7 110//7
f  113//7 110//7 107//7
f  115//19 111//19 110//19
f  111//19 115//19 116//19
f  116//20 115//20 111//20
f  110//20 111//20 115//20
f  111//45 105//45 112//45
f  105//45 111//45 116//45
f  116//46 111//46 105//46
f  112//46 105//46 111//46
f  108//22 116//22 115//22
f  116//22 108//22 114//22
f  114//21 108//21 116//21
f  115//21 116//21 108//21

# Mesh 'SketchUp' with 126 faces
g SketchUp
usemtl ID20
f  62//5 67//5 61//5
f  67//5 62//5 64//5
f  117//5 118//5 62//5
f  62//5 118//5 64//5
f  61//5 117//5 62//5
f  67//5 119//5 61//5
f  119//5 117//5 61//5
f  120//5 51//5 117//5
f  51//5 118//5 117//5
f  117//5 119//5 120//5
f  56//5 121//5 119//5
f  119//5 121//5 120//5
f  67//5 56//5 119//5
f  51//5 120//5 47//5
f  121//5 47//5 120//5
f  47//5 118//5 51//5
f  36//5 122//5 47//5
f  122//5 118//5 47//5
f  47//5 121//5 36//5
f  56//5 36//5 121//5
f  36//5 56//5 45//5
f  67//5 123//5 56//5
f  56//5 123//5 45//5
f  122//5 36//5 34//5
f  36//5 45//5 34//5
f  34//5 118//5 122//5
f  124//5 118//5 34//5
f  124//5 34//5 45//5
f  124//5 45//5 125//5
f  125//5 45//5 123//5
f  123//5 67//5 126//5
f  126//5 67//5 64//5
f  126//5 64//5 118//5
f  126//5 118//5 127//5
f  126//5 127//5 128//5
f  118//5 124//5 129//5
f  118//4 130//4 131//4
f  130//4 118//4 132//4
f  132//4 118//4 133//4
f  129//4 133//4 118//4
f  130//4 134//4 131//4
f  133//4 135//4 136//4
f  135//4 133//4 129//4
f  137//4 132//4 133//4
f  132//4 137//4 138//4
f  135//4 139//4 136//4
f  131//47 127//47 118//47
f  127//47 131//47 140//47
f  141//2 132//2 138//2
f  132//2 141//2 142//2
f  142//2 141//2 127//2
f  127//2 141//2 143//2
f  143//2 141//2 144//2
f  128//2 127//2 143//2
f  145//47 126//47 128//47
f  126//47 145//47 146//47
f  123//1 147//1 148//1
f  147//1 123//1 149//1
f  149//1 123//1 144//1
f  126//1 144//1 123//1
f  147//1 150//1 148//1
f  144//1 146//1 151//1
f  146//1 144//1 126//1
f  141//1 149//1 144//1
f  149//1 141//1 152//1
f  146//1 153//1 151//1
f  125//48 148//48 154//48
f  148//48 125//48 123//48
f  125//3 155//3 124//3
f  156//3 155//3 125//3
f  155//3 137//3 133//3
f  137//3 155//3 152//3
f  152//3 155//3 156//3
f  152//3 156//3 149//3
f  129//48 157//48 135//48
f  157//48 129//48 124//48
f  158//49 132//49 142//49
f  132//49 158//49 130//49
f  159//49 130//49 158//49
f  130//49 159//49 134//49
f  155//50 136//50 160//50
f  136//50 155//50 133//50
f  139//50 160//50 136//50
f  160//50 139//50 161//50
f  141//6 137//6 152//6
f  137//6 141//6 138//6
f  159//51 131//51 134//51
f  131//51 159//51 140//51
f  142//1 140//1 158//1
f  140//1 142//1 127//1
f  127//1 142//1 162//1
f  140//1 159//1 158//1
f  151//49 143//49 144//49
f  143//49 151//49 163//49
f  153//49 163//49 151//49
f  163//49 153//49 164//49
f  128//4 163//4 145//4
f  163//4 128//4 143//4
f  128//4 165//4 143//4
f  163//4 164//4 145//4
f  153//51 145//51 164//51
f  145//51 153//51 146//51
f  149//50 166//50 147//50
f  166//50 149//50 156//50
f  167//50 147//50 166//50
f  147//50 167//50 150//50
f  156//4 154//4 166//4
f  154//4 156//4 125//4
f  125//4 156//4 168//4
f  154//4 167//4 166//4
f  148//52 167//52 154//52
f  167//52 148//52 150//52
f  124//1 160//1 157//1
f  160//1 124//1 155//1
f  124//1 169//1 155//1
f  160//1 161//1 157//1
f  157//52 139//52 135//52
f  139//52 157//52 161//52
f  131//5 158//5 130//5
f  158//5 131//5 140//5
f  136//5 157//5 135//5
f  157//5 136//5 160//5
f  145//5 151//5 163//5
f  151//5 145//5 146//5
f  166//5 148//5 154//5
f  148//5 166//5 147//5

# Mesh 'SketchUp' with 24 faces
g SketchUp
usemtl ID28
f  170//53 171//53 172//53
f  171//53 170//53 173//53
f  174//54 173//54 175//54
f  173//54 174//54 171//54
f  170//55 176//55 177//55
f  176//55 170//55 172//55
f  176//56 175//56 177//56
f  175//56 176//56 174//56
f  70//5 177//5 68//5
f  177//5 70//5 75//5
f  177//5 75//5 170//5
f  175//5 68//5 177//5
f  68//5 175//5 73//5
f  73//5 175//5 173//5
f  73//5 173//5 75//5
f  170//5 75//5 173//5
f  11//5 1//5 9//5
f  1//5 11//5 13//5
f  1//5 13//5 4//5
f  6//5 9//5 1//5
f  9//5 6//5 16//5
f  16//5 6//5 7//5
f  16//5 7//5 13//5
f  4//5 13//5 7//5

# Mesh 'SketchUp_ID41' with 40 faces
g SketchUp_ID41
usemtl ID42
f  31//5 10//5 135//5
f  10//5 31//5 28//5
f  148//5 174//5 31//5
f  31//5 174//5 25//5
f  148//5 31//5 135//5
f  135//5 10//5 136//5
f  148//5 135//5 157//5
f  174//5 148//5 171//5
f  148//5 157//5 154//5
f  171//5 148//5 147//5
f  176//5 25//5 174//5
f  25//5 176//5 172//5
f  25//5 172//5 26//5
f  26//5 172//5 28//5
f  171//5 28//5 172//5
f  171//5 147//5 151//5
f  171//5 151//5 146//5
f  171//5 146//5 28//5
f  145//5 28//5 146//5
f  140//5 28//5 145//5
f  163//5 140//5 145//5
f  131//5 28//5 140//5
f  140//5 163//5 158//5
f  151//5 158//5 163//5
f  151//5 130//5 158//5
f  15//5 28//5 130//5
f  130//5 28//5 131//5
f  151//5 15//5 130//5
f  22//5 28//5 15//5
f  151//5 12//5 15//5
f  18//5 28//5 22//5
f  14//5 28//5 18//5
f  10//5 28//5 14//5
f  136//5 10//5 160//5
f  160//5 10//5 166//5
f  166//5 10//5 147//5
f  12//5 147//5 10//5
f  151//5 147//5 12//5
f  154//5 160//5 166//5
f  160//5 154//5 157//5

# Mesh 'SketchUp_ID109' with 2 faces
g SketchUp_ID109
usemtl ID110
f  2//5 5//5 3//5
f  5//5 2//5 8//5

